<svg width="22" height="31" viewBox="0 0 22 31" fill="none" xmlns="http://www.w3.org/2000/svg">
<path fill-rule="evenodd" clip-rule="evenodd" d="M20.9249 22C19.2234 24.1139 15.3518 25.5904 10.8479 25.5904C6.47353 25.5904 2.69553 24.1976 0.923036 22.1807C0.329448 22.9182 0 23.7333 0 24.5904C0 27.9041 4.92487 30.5904 11 30.5904C17.0751 30.5904 22 27.9041 22 24.5904C22 23.6627 21.614 22.7842 20.9249 22Z" fill="#5980A4"/>
<path fill-rule="evenodd" clip-rule="evenodd" d="M20.9249 16C19.2234 18.1139 15.3518 19.5904 10.8479 19.5904C6.47353 19.5904 2.69553 18.1976 0.923036 16.1807C0.329448 16.9182 0 17.7333 0 18.5904C0 21.9041 4.92487 24.5904 11 24.5904C17.0751 24.5904 22 21.9041 22 18.5904C22 17.6627 21.614 16.7842 20.9249 16Z" fill="#8EC8FE"/>
<path fill-rule="evenodd" clip-rule="evenodd" d="M20.9249 9.81928C19.2234 11.9332 15.3518 13.4096 10.8479 13.4096C6.47353 13.4096 2.69553 12.0169 0.923036 10C0.329448 10.7375 0 11.5526 0 12.4096C0 15.7233 4.92487 18.4096 11 18.4096C17.0751 18.4096 22 15.7233 22 12.4096C22 11.482 21.614 10.6034 20.9249 9.81928Z" fill="#5980A4"/>
<path d="M22 6C22 9.31371 17.0751 12 11 12C4.92487 12 0 9.31371 0 6C0 2.68629 4.92487 0 11 0C17.0751 0 22 2.68629 22 6Z" fill="#8EC8FE"/>
</svg>
